<svg xmlns:xlink="http://www.w3.org/1999/xlink" style="margin: auto;" class="el-tooltip"
    color-interpolation-filters="sRGB" data-v-b90af754="" height="100%"
    preserveAspectRatio="xMidYMid meet" version="1.0"
    viewBox="0 0 340.000000 250.000000" width="100%" xmlns="http://www.w3.org/2000/svg">
    <g class="icon-svg-group iconsvg" data-v-b90af754="" fill="#92278f"
        transform="translate(79.58253479003906,102)">
        <g class="iconsvg-imagesvg" transform="translate(0,0)">
            <rect fill="#92278f" fill-opacity="0" height="46" stroke-width="2" width="26.346876678003"
                x="0" y="0"></rect>
            <svg class="imagesvg-svg" height="46" width="26.346876678003" x="0" y="0">
                <svg viewBox="0 0 116.634 203.652" xmlns="http://www.w3.org/2000/svg">
                    <path d="M0 0h116.634v203.652H0z" fill="none" pointer-events="none"></path>
                    <path class="st5" d="M46.019 184.864h70v-40h-110z" fill="#92278f"
                        opacity=".8"></path>
                    <path class="st5" d="M6.019 4.864v140l40 40v-180z" fill="#92278f"
                        opacity=".8"></path>
                </svg>
            </svg> <!---->
        </g>
        <!--<g transform="translate(33.34687614440918,7.435000419616699)">-->
            <!--<g class="tp-name iconsvg-namesvg">-->
                <!--<g>-->
                    <!--<path d="M12.85-29.23C12.89-29.69 12.68-30.03 12.18-30.03L6.97-30.03C6.55-30.03 6.26-29.78 6.22-29.36L1.18-0.80C1.09-0.34 1.34 0 1.81 0L18.52 0C18.98 0 19.24-0.25 19.32-0.67L20.12-5.29C20.20-5.75 19.95-6.09 19.45-6.09L8.78-6.09ZM46.37-10.71L47.67-18.14C48.93-25.70 45.15-30.58 37.97-30.58C30.62-30.58 25.62-26.46 24.40-19.57L23.10-12.14C21.80-4.66 25.45 0.55 32.63 0.55C40.19 0.55 45.15-3.53 46.37-10.71ZM29.78-11.38L31.16-18.98C31.79-22.43 33.77-24.44 37.09-24.44C40.28-24.44 41.54-22.13 40.95-18.77L39.61-11.09C39.02-7.69 36.92-5.59 33.60-5.59C30.49-5.59 29.19-7.94 29.78-11.38ZM70.35-2.14C70.64-2.31 70.69-2.56 70.48-3.02L68.50-7.14C68.25-7.60 67.91-7.69 67.49-7.43C65.73-6.26 63.50-5.59 61.57-5.59C58.30-5.59 56.78-7.43 57.33-10.84L58.80-19.32C59.30-22.43 61.32-24.49 64.68-24.49C66.49-24.49 68.21-23.90 69.55-22.97C69.97-22.72 70.31-22.76 70.56-23.10L73.63-26.71C73.92-27.09 73.92-27.47 73.54-27.72C71.48-29.44 68.54-30.58 65.27-30.58C58.46-30.58 53.30-27.01 52.08-19.99L50.61-11.47C49.31-3.91 53.42 0.55 60.35 0.55C64.51 0.55 67.75-0.59 70.35-2.14ZM93.74-30.03C93.41-30.03 93.07-29.86 92.86-29.61L83.37-18.82L85.22-29.23C85.30-29.74 85.05-30.03 84.55-30.03L79.38-30.03C78.92-30.03 78.67-29.78 78.58-29.36L73.54-0.80C73.46-0.34 73.71 0 74.21 0L79.38 0C79.84 0 80.09-0.25 80.18-0.67L81.73-9.45L84.25-11.89L89.75-0.55C89.88-0.17 90.22 0 90.59 0L96.52 0C97.06 0 97.31-0.38 97.06-0.88L89.04-16.51L100.93-29.11C101.35-29.61 101.14-30.03 100.51-30.03ZM123.65-29.23C123.73-29.69 123.48-30.03 122.98-30.03L105.71-30.03C105.29-30.03 105.04-29.78 104.96-29.36L99.88-0.80C99.83-0.34 100.04 0 100.55 0L118.48 0C118.94 0 119.20-0.21 119.28-0.67L120.04-5.25C120.08-5.71 119.83-6.05 119.36-6.05L107.48-6.05L108.57-12.31L118.69-12.31C119.11-12.31 119.36-12.56 119.45-12.98L120.25-17.39C120.33-17.89 120.08-18.19 119.62-18.19L109.62-18.19L110.67-24.02L122.09-24.02C122.51-24.02 122.77-24.28 122.85-24.70ZM129.78 0C130.24 0 130.49-0.25 130.58-0.67L132.17-10.00L134.95-10.00L138.81-0.55C138.94-0.17 139.23 0 139.65 0L145.36 0C145.91 0 146.12-0.34 145.87-0.84L141.16-10.79C145.28-12.05 147.76-14.87 148.47-19.24C149.48-25.33 146.16-30.03 139.36-30.03L129.70-30.03C129.23-30.03 128.98-29.78 128.90-29.36L123.90-0.80C123.82-0.34 124.07 0 124.57 0ZM134.61-23.98L138.35-23.98C141.12-23.98 142.13-22.51 141.71-19.74C141.29-17.18 139.73-15.96 136.92-15.96L133.22-15.96Z"-->
                        <!--transform="translate(-1.159994825359,30.576)"></path>-->
                <!--</g> &lt;!&ndash;&ndash;&gt;-->
            <!--</g> &lt;!&ndash;&ndash;&gt;-->
        <!--</g>-->
    </g>
</svg>